<mxfile host="Electron" modified="2023-06-23T10:02:26.651Z" agent="Mozilla/5.0 (Windows NT 10.0; Win64; x64) AppleWebKit/537.36 (KHTML, like Gecko) draw.io/21.5.0 Chrome/112.0.5615.204 Electron/24.5.1 Safari/537.36" etag="_Idx0VkKTmcjDXqgx0Ey" version="21.5.0" type="device">
  <diagram name="Page-1" id="6ks8-aGRb-3t2DkxkZou">
    <mxGraphModel dx="-388" dy="334" grid="0" gridSize="10" guides="1" tooltips="1" connect="1" arrows="1" fold="1" page="1" pageScale="1" pageWidth="827" pageHeight="1169" math="0" shadow="0">
      <root>
        <mxCell id="0" />
        <mxCell id="1" parent="0" />
        <mxCell id="9K6-PW_eZZa0o3FRrNUu-3" value="3.3 kΩ" style="pointerEvents=1;verticalLabelPosition=bottom;shadow=0;dashed=0;align=center;html=1;verticalAlign=top;shape=mxgraph.electrical.resistors.resistor_2;rotation=0;" vertex="1" parent="1">
          <mxGeometry x="1130" y="570" width="75" height="15" as="geometry" />
        </mxCell>
        <mxCell id="9K6-PW_eZZa0o3FRrNUu-4" style="edgeStyle=orthogonalEdgeStyle;rounded=0;orthogonalLoop=1;jettySize=auto;html=1;exitX=1;exitY=0.5;exitDx=0;exitDy=0;exitPerimeter=0;entryX=0;entryY=0.5;entryDx=0;entryDy=0;entryPerimeter=0;endArrow=none;endFill=0;" edge="1" parent="1" source="9K6-PW_eZZa0o3FRrNUu-3" target="9K6-PW_eZZa0o3FRrNUu-2">
          <mxGeometry relative="1" as="geometry" />
        </mxCell>
        <mxCell id="9K6-PW_eZZa0o3FRrNUu-2" value="1 kΩ" style="pointerEvents=1;verticalLabelPosition=bottom;shadow=0;dashed=0;align=center;html=1;verticalAlign=top;shape=mxgraph.electrical.resistors.resistor_2;rotation=0;" vertex="1" parent="1">
          <mxGeometry x="1210" y="570" width="75" height="15" as="geometry" />
        </mxCell>
        <mxCell id="9K6-PW_eZZa0o3FRrNUu-5" value="" style="endArrow=none;html=1;rounded=0;exitX=0;exitY=0.5;exitDx=0;exitDy=0;exitPerimeter=0;strokeWidth=3;" edge="1" parent="1" source="9K6-PW_eZZa0o3FRrNUu-3">
          <mxGeometry width="50" height="50" relative="1" as="geometry">
            <mxPoint x="1200" y="600" as="sourcePoint" />
            <mxPoint x="1130" y="500" as="targetPoint" />
          </mxGeometry>
        </mxCell>
        <mxCell id="9K6-PW_eZZa0o3FRrNUu-6" value="GND" style="edgeLabel;html=1;align=center;verticalAlign=middle;resizable=0;points=[];" vertex="1" connectable="0" parent="9K6-PW_eZZa0o3FRrNUu-5">
          <mxGeometry x="0.2826" y="-2" relative="1" as="geometry">
            <mxPoint as="offset" />
          </mxGeometry>
        </mxCell>
        <mxCell id="9K6-PW_eZZa0o3FRrNUu-16" value="" style="endArrow=none;html=1;rounded=0;exitX=0;exitY=0.5;exitDx=0;exitDy=0;exitPerimeter=0;strokeWidth=3;strokeColor=#007FFF;" edge="1" parent="1">
          <mxGeometry width="50" height="50" relative="1" as="geometry">
            <mxPoint x="1210" y="578" as="sourcePoint" />
            <mxPoint x="1210" y="500" as="targetPoint" />
          </mxGeometry>
        </mxCell>
        <mxCell id="9K6-PW_eZZa0o3FRrNUu-17" value="ADC 1" style="edgeLabel;html=1;align=center;verticalAlign=middle;resizable=0;points=[];" vertex="1" connectable="0" parent="9K6-PW_eZZa0o3FRrNUu-16">
          <mxGeometry x="0.2826" y="-2" relative="1" as="geometry">
            <mxPoint as="offset" />
          </mxGeometry>
        </mxCell>
        <mxCell id="9K6-PW_eZZa0o3FRrNUu-18" value="" style="endArrow=none;html=1;rounded=0;exitX=0;exitY=0.5;exitDx=0;exitDy=0;exitPerimeter=0;strokeWidth=3;strokeColor=#007FFF;" edge="1" parent="1">
          <mxGeometry width="50" height="50" relative="1" as="geometry">
            <mxPoint x="1285" y="578" as="sourcePoint" />
            <mxPoint x="1285" y="500" as="targetPoint" />
          </mxGeometry>
        </mxCell>
        <mxCell id="9K6-PW_eZZa0o3FRrNUu-19" value="THR SIGNAL" style="edgeLabel;html=1;align=center;verticalAlign=middle;resizable=0;points=[];" vertex="1" connectable="0" parent="9K6-PW_eZZa0o3FRrNUu-18">
          <mxGeometry x="0.2826" y="-2" relative="1" as="geometry">
            <mxPoint as="offset" />
          </mxGeometry>
        </mxCell>
      </root>
    </mxGraphModel>
  </diagram>
</mxfile>
